<?xml version="1.0" standalone="no"?>
<!DOCTYPE svg PUBLIC "-//W3C//DTD SVG 20010904//EN"
 "http://www.w3.org/TR/2001/REC-SVG-20010904/DTD/svg10.dtd">
<svg version="1.0" xmlns="http://www.w3.org/2000/svg"
 width="1280.000000pt" height="1280.000000pt" viewBox="0 0 1280.000000 1280.000000"
 preserveAspectRatio="xMidYMid meet">
<metadata>
Created by potrace 1.15, written by Peter Selinger 2001-2017
</metadata>
<g transform="translate(0.000000,1280.000000) scale(0.100000,-0.100000)"
fill="#333" stroke="none">
<path d="M6251 11654 c-143 -71 -207 -274 -137 -430 15 -34 45 -79 67 -100 21
-21 39 -42 39 -46 0 -4 -27 -5 -60 -1 l-60 6 0 -66 0 -66 60 -7 c33 -4 60 -9
60 -13 0 -3 -21 -31 -46 -61 -76 -92 -87 -121 -92 -243 -4 -95 -7 -107 -21
-101 -320 139 -699 215 -921 184 -184 -24 -308 -71 -706 -263 -336 -163 -436
-199 -545 -199 -102 1 -190 31 -378 129 -205 106 -256 108 -353 16 l-36 -35
-38 28 c-112 86 -245 -17 -248 -191 -1 -89 22 -152 75 -199 33 -31 46 -36 88
-36 43 0 55 5 103 45 30 25 64 45 75 45 25 0 95 -69 129 -126 28 -48 41 -146
27 -209 l-9 -40 -64 3 c-36 2 -70 8 -76 13 -6 5 -17 27 -24 49 -20 60 -69 78
-118 44 -19 -13 -22 -24 -22 -78 l0 -63 54 -49 c29 -27 63 -56 73 -64 18 -13
19 -23 14 -75 -6 -56 -8 -60 -33 -63 -19 -2 -30 -10 -33 -25 -3 -12 -32 -195
-65 -407 -33 -212 -64 -392 -68 -400 -6 -9 -29 -15 -70 -16 -55 -2 -62 -1 -62
17 0 15 -7 19 -34 19 -45 0 -96 -46 -96 -88 0 -39 52 -110 84 -114 l25 -3 -53
-135 c-29 -74 -198 -508 -376 -965 -177 -456 -330 -848 -340 -870 -10 -22
-151 -384 -315 -805 -164 -421 -409 -1053 -546 -1404 -137 -352 -249 -644
-249 -649 0 -23 148 -197 289 -338 441 -440 953 -685 1626 -776 185 -25 684
-25 874 0 880 116 1556 489 1883 1040 l41 68 -36 87 c-20 48 -162 398 -315
777 -428 1059 -798 1972 -832 2055 -34 82 -434 1071 -641 1584 -71 176 -129
323 -129 328 0 4 11 8 25 8 19 0 33 11 55 47 38 60 38 83 -2 122 -39 38 -98
45 -98 11 0 -25 -30 -27 -64 -5 -21 14 -25 14 -39 0 -9 -8 -18 -15 -21 -15
-11 0 -26 84 -86 459 -33 212 -62 386 -63 388 -2 1 -14 4 -28 6 -21 4 -25 11
-32 67 -4 34 -6 63 -5 64 64 26 106 56 120 86 25 50 23 154 -7 280 -31 131
-33 220 -6 244 18 17 24 16 118 -14 133 -43 295 -76 451 -91 197 -19 300 -3
717 116 300 85 384 99 605 99 165 0 211 -3 297 -22 122 -26 269 -76 376 -125
l77 -36 0 -53 c0 -30 -5 -59 -11 -65 -5 -5 -9 -38 -7 -74 l3 -64 61 -8 61 -8
-13 -37 c-19 -53 -18 -243 1 -289 8 -19 15 -38 15 -41 0 -2 -26 -2 -59 2 -49
6 -60 4 -65 -9 -10 -26 -7 -123 4 -130 14 -9 14 -6487 -1 -6502 -5 -5 -9 -38
-7 -74 3 -58 5 -64 26 -67 12 -2 22 -6 22 -10 -1 -4 -40 -49 -88 -99 l-87 -93
-150 -10 c-508 -36 -885 -107 -1078 -204 -102 -51 -129 -85 -120 -155 l5 -48
-94 -46 c-111 -54 -181 -116 -197 -173 -6 -22 -11 -93 -11 -159 0 -156 14
-189 101 -245 379 -245 1669 -367 2799 -265 658 60 1138 196 1215 346 18 34
21 263 4 323 -14 51 -78 113 -160 156 l-66 34 -6 68 c-3 37 -13 78 -21 90 -91
130 -613 247 -1262 284 l-121 6 -79 91 c-43 50 -79 93 -79 96 0 3 10 7 23 9
21 3 22 8 22 78 0 43 -4 74 -10 74 -14 0 -14 6472 0 6486 6 6 10 41 8 80 l-3
69 -59 -3 c-54 -3 -58 -2 -50 15 13 26 17 276 5 317 l-9 35 59 7 59 7 0 71 c0
40 -5 77 -11 83 -5 5 -9 32 -7 59 l3 49 85 37 c215 94 391 136 606 145 221 9
344 -11 703 -113 373 -106 497 -125 686 -104 150 16 332 53 440 90 50 16 93
30 98 30 4 0 16 -9 27 -20 27 -27 26 -79 -6 -215 -32 -141 -40 -231 -25 -278
14 -40 68 -93 106 -103 21 -5 25 -12 24 -43 -2 -63 -13 -94 -33 -97 -10 -1
-22 -6 -27 -11 -4 -4 -35 -183 -69 -398 -34 -214 -65 -401 -69 -415 -7 -22
-13 -24 -68 -26 -52 -1 -62 1 -66 17 -9 33 -63 25 -104 -16 -40 -40 -40 -60 4
-126 18 -28 33 -39 50 -39 19 0 24 -4 20 -17 -5 -21 -616 -1590 -754 -1937
-52 -133 -324 -830 -605 -1551 -280 -720 -512 -1315 -514 -1321 -7 -17 165
-224 291 -349 314 -314 711 -548 1135 -670 326 -94 626 -130 1005 -122 394 9
675 55 1021 168 549 178 975 486 1212 876 l49 82 -189 468 c-104 257 -263 650
-353 873 -185 459 -528 1306 -790 1950 -97 239 -217 536 -267 660 -50 124
-149 369 -221 545 -71 176 -132 326 -134 333 -3 7 4 12 19 12 45 0 104 92 88
136 -21 54 -116 87 -127 44 -7 -25 -40 -26 -66 -3 -18 17 -19 17 -33 -2 -11
-14 -17 -16 -26 -7 -6 6 -41 197 -77 424 l-66 413 -26 3 c-21 2 -28 10 -33 34
-9 45 -7 108 3 108 18 0 111 81 126 110 37 71 5 160 -58 160 -44 0 -53 -8 -75
-65 l-20 -50 -67 -5 c-82 -6 -85 -2 -85 106 0 92 17 133 86 212 55 62 78 66
131 18 51 -45 75 -56 120 -56 140 0 215 239 120 381 -59 88 -142 102 -214 37
l-21 -20 -55 45 c-91 74 -151 74 -288 1 -221 -118 -323 -154 -430 -156 -118
-1 -187 24 -524 187 -447 216 -580 264 -780 280 -193 16 -554 -57 -816 -165
-39 -17 -73 -30 -75 -30 -2 0 -4 46 -4 103 0 121 -12 152 -88 244 -29 34 -52
65 -52 68 0 3 17 5 38 6 74 2 87 10 88 58 3 80 -1 84 -67 77 -33 -3 -59 -2
-59 2 0 4 15 19 34 34 20 16 49 57 68 95 30 61 33 76 33 158 0 78 -4 97 -28
147 -72 147 -224 207 -356 142z m68 -38 c-2 -1 -19 -8 -36 -14 -37 -12 -45 -6
-10 8 22 9 54 13 46 6z m-2939 -3001 c32 -17 53 -40 78 -91 24 -47 90 -110
136 -129 30 -13 40 -36 218 -477 103 -254 283 -701 401 -993 118 -291 312
-771 431 -1065 120 -294 323 -798 453 -1120 130 -322 289 -715 353 -875 64
-159 114 -291 110 -293 -4 -2 -52 8 -106 22 -350 88 -926 172 -1499 218 -217
18 -1206 18 -1450 0 -464 -33 -857 -78 -1130 -128 -153 -28 -328 -70 -358 -85
-10 -6 -21 -8 -24 -5 -3 2 22 74 55 158 33 84 151 385 262 668 458 1168 719
1832 835 2125 67 171 191 486 275 700 84 215 219 558 300 763 l146 374 40 17
c57 26 102 67 129 120 34 67 74 101 131 111 61 10 180 2 214 -15z m6238 -7
c20 -12 44 -42 62 -78 30 -60 100 -125 146 -136 12 -3 25 -11 27 -17 32 -83
766 -1900 847 -2097 50 -122 120 -295 632 -1565 137 -341 297 -736 355 -879
57 -142 102 -260 100 -263 -3 -2 -40 5 -83 16 -357 90 -971 180 -1519 223
-265 20 -1234 17 -1535 -5 -625 -47 -1164 -125 -1377 -198 -31 -10 -57 -18
-59 -17 -1 2 60 161 135 353 76 193 217 553 314 800 164 419 260 663 872 2220
126 319 301 767 391 995 l162 415 39 18 c52 26 108 82 143 144 34 60 65 84
124 94 68 13 186 0 224 -23z"/>
</g>
</svg>
